<?xml version="1.0" standalone="no"?>
<svg xmlns="http://www.w3.org/2000/svg" width="80" height="710.5833320617676"><g transform="translate(60,20)"><g class="x axis" transform="translate(0,600)" fill="none" font-size="10" font-family="sans-serif" text-anchor="middle"><path class="domain" stroke="#000" d="M0.5,6V0.5H20.5V6"/><g class="tick" opacity="1" transform="translate(5.238095238095238,0)"><line stroke="#000" y2="6"/><text fill="#000" y="9" dy="-0.5em" style="text-anchor: end;" dx="-.8em" transform="rotate(-90)">bone</text></g><g class="tick" opacity="1" transform="translate(14.761904761904763,0)"><line stroke="#000" y2="6"/><text fill="#000" y="9" dy="-0.5em" style="text-anchor: end;" dx="-.8em" transform="rotate(-90)">calculus</text></g></g><g class="y axis" fill="none" font-size="10" font-family="sans-serif" text-anchor="end"><path class="domain" stroke="#000" d="M-6,600.5H0.5V0.5H-6"/><g class="tick" opacity="1" transform="translate(0,600.5)"><line stroke="#000" x2="-6"/><text fill="#000" x="-9" dy="0.32em">0%</text></g><g class="tick" opacity="1" transform="translate(0,540.5)"><line stroke="#000" x2="-6"/><text fill="#000" x="-9" dy="0.32em">10%</text></g><g class="tick" opacity="1" transform="translate(0,480.5)"><line stroke="#000" x2="-6"/><text fill="#000" x="-9" dy="0.32em">20%</text></g><g class="tick" opacity="1" transform="translate(0,420.5)"><line stroke="#000" x2="-6"/><text fill="#000" x="-9" dy="0.32em">30%</text></g><g class="tick" opacity="1" transform="translate(0,360.5)"><line stroke="#000" x2="-6"/><text fill="#000" x="-9" dy="0.32em">40%</text></g><g class="tick" opacity="1" transform="translate(0,300.5)"><line stroke="#000" x2="-6"/><text fill="#000" x="-9" dy="0.32em">50%</text></g><g class="tick" opacity="1" transform="translate(0,240.5)"><line stroke="#000" x2="-6"/><text fill="#000" x="-9" dy="0.32em">60%</text></g><g class="tick" opacity="1" transform="translate(0,180.5)"><line stroke="#000" x2="-6"/><text fill="#000" x="-9" dy="0.32em">70%</text></g><g class="tick" opacity="1" transform="translate(0,120.5)"><line stroke="#000" x2="-6"/><text fill="#000" x="-9" dy="0.32em">80%</text></g><g class="tick" opacity="1" transform="translate(0,60.5)"><line stroke="#000" x2="-6"/><text fill="#000" x="-9" dy="0.32em">90%</text></g><g class="tick" opacity="1" transform="translate(0,0.5)"><line stroke="#000" x2="-6"/><text fill="#000" x="-9" dy="0.32em">100%</text></g></g><text id="y-label" text-anchor="middle" style="font: 12px sans-serif;" transform="translate(-30,300)rotate(-90)">Relative Frequency</text><text id="x-label" text-anchor="middle" style="font: 12px sans-serif;" transform="translate(10,670.5833320617676)">Sample</text><g class="layer" style="fill: rgb(190, 174, 212);"><rect x="0.9523809523809526" y="595.6529816087683" height="0.7802340702211268" width="8.571428571428571"/><rect x="10.476190476190476" y="598.8907148726377" height="0" width="8.571428571428571"/></g><g class="layer" style="fill: rgb(56, 108, 176);"><rect x="0.9523809523809526" y="425.56195430057585" height="4.23555638120007" width="8.571428571428571"/><rect x="10.476190476190476" y="449.50698438783894" height="10.846343467543136" width="8.571428571428571"/></g><g class="layer" style="fill: rgb(191, 91, 23);"><rect x="0.9523809523809526" y="539.4761285528516" height="3.901170351105293" width="8.571428571428571"/><rect x="10.476190476190476" y="564.9958915365653" height="0" width="8.571428571428571"/></g><g class="layer" style="fill: rgb(102, 102, 102);"><rect x="0.9523809523809526" y="579.1566041240943" height="1.6719301504737132" width="8.571428571428571"/><rect x="10.476190476190476" y="588.783894823336" height="0" width="8.571428571428571"/></g><g class="layer" style="fill: rgb(102, 102, 102);"><rect x="0.9523809523809526" y="567.4530930707783" height="2.2292402006316934" width="8.571428571428571"/><rect x="10.476190476190476" y="584.7165160230074" height="0" width="8.571428571428571"/></g><g class="layer" style="fill: rgb(127, 201, 127);"><rect x="0.9523809523809526" y="593.2008173880736" height="0" width="8.571428571428571"/><rect x="10.476190476190476" y="595.0698438783895" height="1.109285127362341" width="8.571428571428571"/></g><g class="layer" style="fill: rgb(191, 91, 23);"><rect x="0.9523809523809526" y="181.46015233141355" height="32.2125208991269" width="8.571428571428571"/><rect x="10.476190476190476" y="308.8742810188989" height="0" width="8.571428571428571"/></g><g class="layer" style="fill: rgb(255, 255, 153);"><rect x="0.9523809523809526" y="562.3258406093256" height="2.6750882407579866" width="8.571428571428571"/><rect x="10.476190476190476" y="579.7863599013968" height="0" width="8.571428571428571"/></g><g class="layer" style="fill: rgb(253, 192, 134);"><rect x="0.9523809523809526" y="565.0009288500836" height="2.4521642206947263" width="8.571428571428571"/><rect x="10.476190476190476" y="579.7863599013968" height="0" width="8.571428571428571"/></g><g class="layer" style="fill: rgb(191, 91, 23);"><rect x="0.9523809523809526" y="556.4183540776519" height="3.0094742708527065" width="8.571428571428571"/><rect x="10.476190476190476" y="576.7050123253903" height="0" width="8.571428571428571"/></g><g class="layer" style="fill: rgb(56, 108, 176);"><rect x="0.9523809523809526" y="213.67267323054045" height="26.973806427642558" width="8.571428571428571"/><rect x="10.476190476190476" y="343.138866064092" height="0" width="8.571428571428571"/></g><g class="layer" style="fill: rgb(102, 102, 102);"><rect x="0.9523809523809526" y="553.4088798067992" height="3.0094742708527065" width="8.571428571428571"/><rect x="10.476190476190476" y="576.7050123253903" height="0" width="8.571428571428571"/></g><g class="layer" style="fill: rgb(255, 255, 153);"><rect x="0.9523809523809526" y="523.7599851383986" height="0" width="8.571428571428571"/><rect x="10.476190476190476" y="557.2308956450288" height="5.423171733771596" width="8.571428571428571"/></g><g class="layer" style="fill: rgb(127, 201, 127);"><rect x="0.9523809523809526" y="533.0113319710199" height="4.347018391231586" width="8.571428571428571"/><rect x="10.476190476190476" y="562.6540673788004" height="0" width="8.571428571428571"/></g><g class="layer" style="fill: rgb(240, 2, 127);"><rect x="0.9523809523809526" y="463.01318967118704" height="0" width="8.571428571428571"/><rect x="10.476190476190476" y="498.43878389482336" height="9.983566146261296" width="8.571428571428571"/></g><g class="layer" style="fill: rgb(190, 174, 212);"><rect x="0.9523809523809526" y="503.47389931265093" height="5.238714471484286" width="8.571428571428571"/><rect x="10.476190476190476" y="546.1380443714052" height="0" width="8.571428571428571"/></g><g class="layer" style="fill: rgb(240, 2, 127);"><rect x="0.9523809523809526" y="491.8818502693665" height="6.353334571800076" width="8.571428571428571"/><rect x="10.476190476190476" y="533.442892358258" height="0" width="8.571428571428571"/></g><g class="layer" style="fill: rgb(102, 102, 102);"><rect x="0.9523809523809526" y="537.3583503622515" height="2.11777819060012" width="8.571428571428571"/><rect x="10.476190476190476" y="562.6540673788004" height="2.341824157764904" width="8.571428571428571"/></g><g class="layer" style="fill: rgb(255, 255, 153);"><rect x="0.9523809523809526" y="498.2351848411666" height="0" width="8.571428571428571"/><rect x="10.476190476190476" y="540.0986031224322" height="6.039441248972935" width="8.571428571428571"/></g><g class="layer" style="fill: rgb(255, 255, 153);"><rect x="0.9523809523809526" y="582.3890024150102" height="0" width="8.571428571428571"/><rect x="10.476190476190476" y="592.2350041084634" height="1.7255546425636794" width="8.571428571428571"/></g><g class="layer" style="fill: rgb(56, 108, 176);"><rect x="0.9523809523809526" y="562.3258406093256" height="0" width="8.571428571428571"/><rect x="10.476190476190476" y="576.7050123253903" height="3.0813475760065785" width="8.571428571428571"/></g><g class="layer" style="fill: rgb(253, 192, 134);"><rect x="0.9523809523809526" y="595.6529816087683" height="0" width="8.571428571428571"/><rect x="10.476190476190476" y="598.0279375513558" height="0.8627773212818965" width="8.571428571428571"/></g><g class="layer" style="fill: rgb(255, 255, 153);"><rect x="0.9523809523809526" y="429.7975106817759" height="13.375441203789649" width="8.571428571428571"/><rect x="10.476190476190476" y="460.3533278553821" height="0" width="8.571428571428571"/></g><g class="layer" style="fill: rgb(253, 192, 134);"><rect x="0.9523809523809526" y="362.2515326026379" height="16.830763514768705" width="8.571428571428571"/><rect x="10.476190476190476" y="413.14708299096134" height="0" width="8.571428571428571"/></g><g class="layer" style="fill: rgb(255, 255, 153);"><rect x="0.9523809523809526" y="543.3772989039569" height="3.7897083410737196" width="8.571428571428571"/><rect x="10.476190476190476" y="573.3771569433032" height="0" width="8.571428571428571"/></g><g class="layer" style="fill: rgb(102, 102, 102);"><rect x="0.9523809523809526" y="586.5130967861787" height="1.3375441203789933" width="8.571428571428571"/><rect x="10.476190476190476" y="593.9605587510271" height="0" width="8.571428571428571"/></g><g class="layer" style="fill: rgb(102, 102, 102);"><rect x="0.9523809523809526" y="395.80159762214373" height="0" width="8.571428571428571"/><rect x="10.476190476190476" y="431.51191454396053" height="17.99506984387841" width="8.571428571428571"/></g><g class="layer" style="fill: rgb(56, 108, 176);"><rect x="0.9523809523809526" y="543.3772989039569" height="0" width="8.571428571428571"/><rect x="10.476190476190476" y="569.1865242399342" height="4.190632703369033" width="8.571428571428571"/></g><g class="layer" style="fill: rgb(56, 108, 176);"><rect x="0.9523809523809526" y="463.01318967118704" height="0" width="8.571428571428571"/><rect x="10.476190476190476" y="508.42235004108466" height="9.86031224322096" width="8.571428571428571"/></g><g class="layer" style="fill: rgb(102, 102, 102);"><rect x="0.9523809523809526" y="443.17295188556557" height="10.477428942968686" width="8.571428571428571"/><rect x="10.476190476190476" y="498.43878389482336" height="0" width="8.571428571428571"/></g><g class="layer" style="fill: rgb(190, 174, 212);"><rect x="0.9523809523809526" y="592.1976592977893" height="1.0031580902842734" width="8.571428571428571"/><rect x="10.476190476190476" y="595.0698438783895" height="0" width="8.571428571428571"/></g><g class="layer" style="fill: rgb(240, 2, 127);"><rect x="0.9523809523809526" y="518.7441946869775" height="5.0157904514211396" width="8.571428571428571"/><rect x="10.476190476190476" y="551.8077239112572" height="0" width="8.571428571428571"/></g><g class="layer" style="fill: rgb(191, 91, 23);"><rect x="0.9523809523809526" y="593.2008173880736" height="0.8916960802525864" width="8.571428571428571"/><rect x="10.476190476190476" y="597.165160230074" height="0" width="8.571428571428571"/></g><g class="layer" style="fill: rgb(127, 201, 127);"><rect x="0.9523809523809526" y="599.6656139699053" height="0.3343860300947199" width="8.571428571428571"/><rect x="10.476190476190476" y="600" height="0" width="8.571428571428571"/></g><g class="layer" style="fill: rgb(253, 192, 134);"><rect x="0.9523809523809526" y="598.8853798996842" height="0.4458480401264069" width="8.571428571428571"/><rect x="10.476190476190476" y="600" height="0" width="8.571428571428571"/></g><g class="layer" style="fill: rgb(127, 201, 127);"><rect x="0.9523809523809526" y="395.80159762214373" height="0" width="8.571428571428571"/><rect x="10.476190476190476" y="413.14708299096134" height="18.364831552999192" width="8.571428571428571"/></g><g class="layer" style="fill: rgb(190, 174, 212);"><rect x="0.9523809523809526" y="379.0822961174066" height="16.719301504737132" width="8.571428571428571"/><rect x="10.476190476190476" y="413.14708299096134" height="0" width="8.571428571428571"/></g><g class="layer" style="fill: rgb(56, 108, 176);"><rect x="0.9523809523809526" y="327.80977150287936" height="17.499535574958202" width="8.571428571428571"/><rect x="10.476190476190476" y="413.14708299096134" height="0" width="8.571428571428571"/></g><g class="layer" style="fill: rgb(190, 174, 212);"><rect x="0.9523809523809526" y="575.7012818131153" height="1.7833921605052865" width="8.571428571428571"/><rect x="10.476190476190476" y="588.783894823336" height="0" width="8.571428571428571"/></g><g class="layer" style="fill: rgb(102, 102, 102);"><rect x="0.9523809523809526" y="597.1019877391789" height="0.6687720601895535" width="8.571428571428571"/><rect x="10.476190476190476" y="598.8907148726377" height="0" width="8.571428571428571"/></g><g class="layer" style="fill: rgb(56, 108, 176);"><rect x="0.9523809523809526" y="498.2351848411666" height="0" width="8.571428571428571"/><rect x="10.476190476190476" y="533.442892358258" height="6.655710764174273" width="8.571428571428571"/></g><g class="layer" style="fill: rgb(127, 201, 127);"><rect x="0.9523809523809526" y="508.7126137841352" height="0" width="8.571428571428571"/><rect x="10.476190476190476" y="546.1380443714052" height="5.669679539852041" width="8.571428571428571"/></g><g class="layer" style="fill: rgb(102, 102, 102);"><rect x="0.9523809523809526" y="181.46015233141355" height="0" width="8.571428571428571"/><rect x="10.476190476190476" y="272.0213640098603" height="36.852917009038606" width="8.571428571428571"/></g><g class="layer" style="fill: rgb(240, 2, 127);"><rect x="0.9523809523809526" y="327.80977150287936" height="0" width="8.571428571428571"/><rect x="10.476190476190476" y="392.93344289235824" height="20.213640098603094" width="8.571428571428571"/></g><g class="layer" style="fill: rgb(190, 174, 212);"><rect x="0.9523809523809526" y="443.17295188556557" height="0" width="8.571428571428571"/><rect x="10.476190476190476" y="473.1717337715694" height="12.695152013147094" width="8.571428571428571"/></g><g class="layer" style="fill: rgb(56, 108, 176);"><rect x="0.9523809523809526" y="582.3890024150102" height="0" width="8.571428571428571"/><rect x="10.476190476190476" y="590.5094494658997" height="1.7255546425636794" width="8.571428571428571"/></g><g class="layer" style="fill: rgb(190, 174, 212);"><rect x="0.9523809523809526" y="599.3312279398106" height="0.3343860300947199" width="8.571428571428571"/><rect x="10.476190476190476" y="600" height="0" width="8.571428571428571"/></g><g class="layer" style="fill: rgb(56, 108, 176);"><rect x="0.9523809523809526" y="523.7599851383986" height="0" width="8.571428571428571"/><rect x="10.476190476190476" y="551.8077239112572" height="5.423171733771596" width="8.571428571428571"/></g><g class="layer" style="fill: rgb(253, 192, 134);"><rect x="0.9523809523809526" y="575.7012818131153" height="0" width="8.571428571428571"/><rect x="10.476190476190476" y="586.8118323746919" height="1.9720624486441238" width="8.571428571428571"/></g><g class="layer" style="fill: rgb(127, 201, 127);"><rect x="0.9523809523809526" y="567.4530930707783" height="0" width="8.571428571428571"/><rect x="10.476190476190476" y="582.2514379622021" height="2.4650780608053537" width="8.571428571428571"/></g><g class="layer" style="fill: rgb(240, 2, 127);"><rect x="0.9523809523809526" y="582.3890024150102" height="0" width="8.571428571428571"/><rect x="10.476190476190476" y="588.783894823336" height="1.7255546425636794" width="8.571428571428571"/></g><g class="layer" style="fill: rgb(56, 108, 176);"><rect x="0.9523809523809526" y="-1.1368683772161603e-13" height="0" width="8.571428571428571"/><rect x="10.476190476190476" y="0" height="243.91947411668036" width="8.571428571428571"/></g><g class="layer" style="fill: rgb(56, 108, 176);"><rect x="0.9523809523809526" y="598.8853798996842" height="0" width="8.571428571428571"/><rect x="10.476190476190476" y="598.8907148726377" height="0.6162695152013384" width="8.571428571428571"/></g><g class="layer" style="fill: rgb(253, 192, 134);"><rect x="0.9523809523809526" y="240.646479658183" height="24.07579416682148" width="8.571428571428571"/><rect x="10.476190476190476" y="372.2267871815941" height="0" width="8.571428571428571"/></g><g class="layer" style="fill: rgb(190, 174, 212);"><rect x="0.9523809523809526" y="478.6178710756084" height="0" width="8.571428571428571"/><rect x="10.476190476190476" y="518.2826622843056" height="8.011503697617172" width="8.571428571428571"/></g><g class="layer" style="fill: rgb(255, 255, 153);"><rect x="0.9523809523809526" y="240.646479658183" height="0" width="8.571428571428571"/><rect x="10.476190476190476" y="343.138866064092" height="29.087921117502106" width="8.571428571428571"/></g><g class="layer" style="fill: rgb(191, 91, 23);"><rect x="0.9523809523809526" y="491.8818502693665" height="0" width="8.571428571428571"/><rect x="10.476190476190476" y="526.2941659819228" height="7.148726376335162" width="8.571428571428571"/></g><g class="layer" style="fill: rgb(190, 174, 212);"><rect x="0.9523809523809526" y="567.4530930707783" height="0" width="8.571428571428571"/><rect x="10.476190476190476" y="579.7863599013968" height="2.46507806080524" width="8.571428571428571"/></g><g class="layer" style="fill: rgb(240, 2, 127);"><rect x="0.9523809523809526" y="559.4278283485046" height="2.8980122608210195" width="8.571428571428571"/><rect x="10.476190476190476" y="576.7050123253903" height="0" width="8.571428571428571"/></g><g class="layer" style="fill: rgb(253, 192, 134);"><rect x="0.9523809523809526" y="591.1945012075051" height="1.0031580902841597" width="8.571428571428571"/><rect x="10.476190476190476" y="595.0698438783895" height="0" width="8.571428571428571"/></g><g class="layer" style="fill: rgb(127, 201, 127);"><rect x="0.9523809523809526" y="478.6178710756084" height="6.799182611926426" width="8.571428571428571"/><rect x="10.476190476190476" y="526.2941659819228" height="0" width="8.571428571428571"/></g><g class="layer" style="fill: rgb(240, 2, 127);"><rect x="0.9523809523809526" y="598.3280698495263" height="0.5573100501578665" width="8.571428571428571"/><rect x="10.476190476190476" y="598.8907148726377" height="0" width="8.571428571428571"/></g><g class="layer" style="fill: rgb(240, 2, 127);"><rect x="0.9523809523809526" y="589.076723016905" height="1.1146201003158467" width="8.571428571428571"/><rect x="10.476190476190476" y="593.9605587510271" height="0" width="8.571428571428571"/></g><g class="layer" style="fill: rgb(255, 255, 153);"><rect x="0.9523809523809526" y="590.1913431172209" height="1.0031580902842734" width="8.571428571428571"/><rect x="10.476190476190476" y="595.0698438783895" height="0" width="8.571428571428571"/></g><g class="layer" style="fill: rgb(253, 192, 134);"><rect x="0.9523809523809526" y="582.3890024150102" height="1.4490061304105666" width="8.571428571428571"/><rect x="10.476190476190476" y="593.9605587510271" height="0" width="8.571428571428571"/></g><g class="layer" style="fill: rgb(255, 255, 153);"><rect x="0.9523809523809526" y="573.91788965261" height="1.7833921605052865" width="8.571428571428571"/><rect x="10.476190476190476" y="586.8118323746919" height="0" width="8.571428571428571"/></g><g class="layer" style="fill: rgb(253, 192, 134);"><rect x="0.9523809523809526" y="547.1670072450306" height="3.232398290915853" width="8.571428571428571"/><rect x="10.476190476190476" y="573.3771569433032" height="0" width="8.571428571428571"/></g><g class="layer" style="fill: rgb(240, 2, 127);"><rect x="0.9523809523809526" y="411.0718929964703" height="14.490061304105552" width="8.571428571428571"/><rect x="10.476190476190476" y="449.50698438783894" height="0" width="8.571428571428571"/></g><g class="layer" style="fill: rgb(253, 192, 134);"><rect x="0.9523809523809526" y="498.2351848411666" height="5.238714471484343" width="8.571428571428571"/><rect x="10.476190476190476" y="546.1380443714052" height="0" width="8.571428571428571"/></g><g class="layer" style="fill: rgb(255, 255, 153);"><rect x="0.9523809523809526" y="345.30930707783756" height="16.942225524800335" width="8.571428571428571"/><rect x="10.476190476190476" y="413.14708299096134" height="0" width="8.571428571428571"/></g><g class="layer" style="fill: rgb(191, 91, 23);"><rect x="0.9523809523809526" y="513.7284042355564" height="5.0157904514211396" width="8.571428571428571"/><rect x="10.476190476190476" y="551.8077239112572" height="0" width="8.571428571428571"/></g><g class="layer" style="fill: rgb(190, 174, 212);"><rect x="0.9523809523809526" y="264.7222738250045" height="23.295560096600468" width="8.571428571428571"/><rect x="10.476190476190476" y="372.2267871815941" height="0" width="8.571428571428571"/></g><g class="layer" style="fill: rgb(102, 102, 102);"><rect x="0.9523809523809526" y="308.1924577373211" height="19.617313765558265" width="8.571428571428571"/><rect x="10.476190476190476" y="372.2267871815941" height="0" width="8.571428571428571"/></g><g class="layer" style="fill: rgb(127, 201, 127);"><rect x="0.9523809523809526" y="141.66821475013916" height="39.7919375812744" width="8.571428571428571"/><rect x="10.476190476190476" y="272.0213640098603" height="0" width="8.571428571428571"/></g><g class="layer" style="fill: rgb(102, 102, 102);"><rect x="0.9523809523809526" y="508.7126137841352" height="5.0157904514211396" width="8.571428571428571"/><rect x="10.476190476190476" y="551.8077239112572" height="0" width="8.571428571428571"/></g><g class="layer" style="fill: rgb(127, 201, 127);"><rect x="0.9523809523809526" y="585.1755526657997" height="1.3375441203789933" width="8.571428571428571"/><rect x="10.476190476190476" y="593.9605587510271" height="0" width="8.571428571428571"/></g><g class="layer" style="fill: rgb(190, 174, 212);"><rect x="0.9523809523809526" y="583.8380085454207" height="1.3375441203789933" width="8.571428571428571"/><rect x="10.476190476190476" y="593.9605587510271" height="0" width="8.571428571428571"/></g><g class="layer" style="fill: rgb(190, 174, 212);"><rect x="0.9523809523809526" y="528.5528515697566" height="4.458480401263273" width="8.571428571428571"/><rect x="10.476190476190476" y="562.6540673788004" height="0" width="8.571428571428571"/></g><g class="layer" style="fill: rgb(127, 201, 127);"><rect x="0.9523809523809526" y="443.17295188556557" height="0" width="8.571428571428571"/><rect x="10.476190476190476" y="485.8668857847165" height="12.571898110106872" width="8.571428571428571"/></g><g class="layer" style="fill: rgb(255, 255, 153);"><rect x="0.9523809523809526" y="-1.1368683772161603e-13" height="77.91194501207508" width="8.571428571428571"/><rect x="10.476190476190476" y="243.91947411668036" height="0" width="8.571428571428571"/></g><g class="layer" style="fill: rgb(240, 2, 127);"><rect x="0.9523809523809526" y="571.80011146201" height="2.1177781906000064" width="8.571428571428571"/><rect x="10.476190476190476" y="584.7165160230074" height="0" width="8.571428571428571"/></g><g class="layer" style="fill: rgb(190, 174, 212);"><rect x="0.9523809523809526" y="126.6208433958758" height="15.047371354263362" width="8.571428571428571"/><rect x="10.476190476190476" y="243.91947411668036" height="28.10188989317993" width="8.571428571428571"/></g><g class="layer" style="fill: rgb(127, 201, 127);"><rect x="0.9523809523809526" y="596.4332156789894" height="0.6687720601894398" width="8.571428571428571"/><rect x="10.476190476190476" y="598.8907148726377" height="0" width="8.571428571428571"/></g><g class="layer" style="fill: rgb(191, 91, 23);"><rect x="0.9523809523809526" y="453.65038082853425" height="9.362808842652782" width="8.571428571428571"/><rect x="10.476190476190476" y="498.43878389482336" height="0" width="8.571428571428571"/></g><g class="layer" style="fill: rgb(191, 91, 23);"><rect x="0.9523809523809526" y="327.80977150287936" height="0" width="8.571428571428571"/><rect x="10.476190476190476" y="372.2267871815941" height="20.706655710764153" width="8.571428571428571"/></g><g class="layer" style="fill: rgb(240, 2, 127);"><rect x="0.9523809523809526" y="543.3772989039569" height="0" width="8.571428571428571"/><rect x="10.476190476190476" y="564.9958915365653" height="4.1906327033689195" width="8.571428571428571"/></g><g class="layer" style="fill: rgb(255, 255, 153);"><rect x="0.9523809523809526" y="595.6529816087683" height="0" width="8.571428571428571"/><rect x="10.476190476190476" y="597.165160230074" height="0.8627773212817829" width="8.571428571428571"/></g><g class="layer" style="fill: rgb(127, 201, 127);"><rect x="0.9523809523809526" y="577.4846739736206" height="1.6719301504737132" width="8.571428571428571"/><rect x="10.476190476190476" y="588.783894823336" height="0" width="8.571428571428571"/></g><g class="layer" style="fill: rgb(191, 91, 23);"><rect x="0.9523809523809526" y="597.7707597993684" height="0.5573100501578665" width="8.571428571428571"/><rect x="10.476190476190476" y="598.8907148726377" height="0" width="8.571428571428571"/></g><g class="layer" style="fill: rgb(253, 192, 134);"><rect x="0.9523809523809526" y="443.17295188556557" height="0" width="8.571428571428571"/><rect x="10.476190476190476" y="460.3533278553821" height="12.818405916187317" width="8.571428571428571"/></g><g class="layer" style="fill: rgb(255, 255, 153);"><rect x="0.9523809523809526" y="598.8853798996842" height="0" width="8.571428571428571"/><rect x="10.476190476190476" y="599.506984387839" height="0.49301561216100254" width="8.571428571428571"/></g><g class="layer" style="fill: rgb(253, 192, 134);"><rect x="0.9523809523809526" y="471.1499164034924" height="7.4679546721159795" width="8.571428571428571"/><rect x="10.476190476190476" y="518.2826622843056" height="0" width="8.571428571428571"/></g><g class="layer" style="fill: rgb(56, 108, 176);"><rect x="0.9523809523809526" y="590.1913431172209" height="0" width="8.571428571428571"/><rect x="10.476190476190476" y="593.9605587510271" height="1.1092851273624547" width="8.571428571428571"/></g><g class="layer" style="fill: rgb(191, 91, 23);"><rect x="0.9523809523809526" y="587.8506409065577" height="1.2260821103473063" width="8.571428571428571"/><rect x="10.476190476190476" y="593.9605587510271" height="0" width="8.571428571428571"/></g><g class="layer" style="fill: rgb(191, 91, 23);"><rect x="0.9523809523809526" y="569.68233327141" height="2.1177781906000064" width="8.571428571428571"/><rect x="10.476190476190476" y="584.7165160230074" height="0" width="8.571428571428571"/></g><g class="layer" style="fill: rgb(56, 108, 176);"><rect x="0.9523809523809526" y="594.8727475385473" height="0.7802340702210131" width="8.571428571428571"/><rect x="10.476190476190476" y="597.165160230074" height="0" width="8.571428571428571"/></g><g class="layer" style="fill: rgb(102, 102, 102);"><rect x="0.9523809523809526" y="593.2008173880736" height="0" width="8.571428571428571"/><rect x="10.476190476190476" y="596.1791290057519" height="0.9860312243221188" width="8.571428571428571"/></g><g class="layer" style="fill: rgb(253, 192, 134);"><rect x="0.9523809523809526" y="523.7599851383986" height="4.792866431357993" width="8.571428571428571"/><rect x="10.476190476190476" y="562.6540673788004" height="0" width="8.571428571428571"/></g><g class="layer" style="fill: rgb(102, 102, 102);"><rect x="0.9523809523809526" y="485.4170536875348" height="6.464796581831706" width="8.571428571428571"/><rect x="10.476190476190476" y="526.2941659819228" height="0" width="8.571428571428571"/></g><g class="layer" style="fill: rgb(191, 91, 23);"><rect x="0.9523809523809526" y="580.828534274568" height="1.5604681404421399" width="8.571428571428571"/><rect x="10.476190476190476" y="588.783894823336" height="0" width="8.571428571428571"/></g><g class="layer" style="fill: rgb(191, 91, 23);"><rect x="0.9523809523809526" y="395.80159762214373" height="15.270295374326565" width="8.571428571428571"/><rect x="10.476190476190476" y="449.50698438783894" height="0" width="8.571428571428571"/></g><g class="layer" style="fill: rgb(127, 201, 127);"><rect x="0.9523809523809526" y="550.3994055359465" height="3.0094742708527065" width="8.571428571428571"/><rect x="10.476190476190476" y="576.7050123253903" height="0" width="8.571428571428571"/></g><g class="layer" style="fill: rgb(253, 192, 134);"><rect x="0.9523809523809526" y="77.91194501207497" height="48.70889838380083" width="8.571428571428571"/><rect x="10.476190476190476" y="243.91947411668036" height="0" width="8.571428571428571"/></g><g class="layer" style="fill: rgb(127, 201, 127);"><rect x="0.9523809523809526" y="288.01783392160496" height="20.17462381571613" width="8.571428571428571"/><rect x="10.476190476190476" y="372.2267871815941" height="0" width="8.571428571428571"/></g><g class="layer" style="fill: rgb(255, 255, 153);"><rect x="0.9523809523809526" y="463.01318967118704" height="8.136726732305362" width="8.571428571428571"/><rect x="10.476190476190476" y="518.2826622843056" height="0" width="8.571428571428571"/></g><g class="layer" style="fill: rgb(56, 108, 176);"><rect x="0.9523809523809526" y="573.91788965261" height="0" width="8.571428571428571"/><rect x="10.476190476190476" y="584.7165160230074" height="2.0953163516844597" width="8.571428571428571"/></g><g class="layer" style="fill: rgb(190, 174, 212);"><rect x="0.9523809523809526" y="550.3994055359465" height="0" width="8.571428571428571"/><rect x="10.476190476190476" y="573.3771569433032" height="3.327855382087023" width="8.571428571428571"/></g><g class="layer" style="fill: rgb(240, 2, 127);"><rect x="0.9523809523809526" y="213.67267323054045" height="0" width="8.571428571428571"/><rect x="10.476190476190476" y="308.8742810188989" height="34.26458504519309" width="8.571428571428571"/></g><g class="layer" style="fill: rgb(240, 2, 127);"><rect x="0.9523809523809526" y="594.0925134683262" height="0.7802340702211268" width="8.571428571428571"/><rect x="10.476190476190476" y="597.165160230074" height="0" width="8.571428571428571"/></g></g></svg>